<svg width="50" height="50" viewBox="0 0 50 50" fill="none" xmlns="http://www.w3.org/2000/svg">
<path d="M35.418 20.8333C34.793 20.8333 34.3763 20.625 33.9596 20.2083L23.543 9.79167C22.7096 8.95833 22.7096 7.70833 23.543 6.875C24.3763 6.04167 25.6263 6.04167 26.4596 6.875L36.8763 17.2917C37.7096 18.125 37.7096 19.375 36.8763 20.2083C36.4596 20.625 36.043 20.8333 35.418 20.8333Z" fill="black"/>
<path d="M14.5833 20.8333C13.9583 20.8333 13.5417 20.625 13.125 20.2083C12.2917 19.375 12.2917 18.125 13.125 17.2917L23.5417 6.875C24.375 6.04167 25.625 6.04167 26.4583 6.875C27.2917 7.70833 27.2917 8.95833 26.4583 9.79167L16.0417 20.2083C15.625 20.625 15.2083 20.8333 14.5833 20.8333Z" fill="black"/>
<path d="M25.0013 43.75C23.7513 43.75 22.918 42.9167 22.918 41.6667V8.33333C22.918 7.08333 23.7513 6.25 25.0013 6.25C26.2513 6.25 27.0846 7.08333 27.0846 8.33333V41.6667C27.0846 42.9167 26.2513 43.75 25.0013 43.75Z" fill="black"/>
</svg>
